HIERARCHY
ROOT hip
{
	OFFSET 0.000000 0.000000 0.000000 
	CHANNELS 6 Xposition Yposition Zposition Xrotation Zrotation Yrotation
	JOINT abdomen
	{
		OFFSET 0.000000 3.402643 0.000000 
		CHANNELS 3 Xrotation Zrotation Yrotation
		JOINT chest
		{
			OFFSET 0.000000 8.438565 -0.680529 
			CHANNELS 3 Xrotation Zrotation Yrotation
			JOINT neck
			{
				OFFSET 0.000000 10.207942 -0.272212 
				CHANNELS 3 Xrotation Zrotation Yrotation
				JOINT head
				{
					OFFSET 0.000000 3.130431 0.000000 
					CHANNELS 3 Xrotation Zrotation Yrotation
					End Site
					{
						OFFSET 0.000000 3.130435 0.000000 
					}
				}
			}
			JOINT lCollar
			{
				OFFSET 3.470700 6.669187 -0.816635 
				CHANNELS 3 Yrotation Zrotation Xrotation
				JOINT lShldr
				{
					OFFSET 3.198488 0.000000 0.000000 
					CHANNELS 3 Zrotation Yrotation Xrotation
					JOINT lForeArm
					{
						OFFSET 10.139888 0.000000 0.000000 
						CHANNELS 3 Yrotation Zrotation Xrotation
						JOINT lHand
						{
							OFFSET 8.370511 0.000000 0.000000 
							CHANNELS 3 Zrotation Yrotation Xrotation
							End Site
							{
								OFFSET 4.083176 0.000000 0.000000 
							}
						}
					}
				}
			}
			JOINT rCollar
			{
				OFFSET -3.470700 6.669187 -0.816635 
				CHANNELS 3 Yrotation Zrotation Xrotation
				JOINT rShldr
				{
					OFFSET -3.198488 0.000000 0.000000 
					CHANNELS 3 Zrotation Yrotation Xrotation
					JOINT rForeArm
					{
						OFFSET -10.139888 0.000000 0.000000 
						CHANNELS 3 Yrotation Zrotation Xrotation
						JOINT rHand
						{
							OFFSET -8.370511 0.000000 0.000000 
							CHANNELS 3 Zrotation Yrotation Xrotation
							End Site
							{
								OFFSET -4.083176 0.000000 0.000000 
							}
						}
					}
				}
			}
		}
	}
	JOINT lThigh
	{
		OFFSET 5.308129 -1.633274 1.361059 
		CHANNELS 3 Xrotation Zrotation Yrotation
		JOINT lShin
		{
			OFFSET -2.041588 -20.007561 0.000000 
			CHANNELS 3 Xrotation Zrotation Yrotation
			JOINT lFoot
			{
				OFFSET 0.000000 -19.190928 -1.224953 
				CHANNELS 3 Xrotation Yrotation Zrotation
				End Site
				{
					OFFSET 0.000000 -2.449906 4.627600 
				}
			}
		}
	}
	JOINT rThigh
	{
		OFFSET -5.308129 -1.633274 1.361059 
		CHANNELS 3 Xrotation Zrotation Yrotation
		JOINT rShin
		{
			OFFSET 2.041588 -20.007561 0.000000 
			CHANNELS 3 Xrotation Zrotation Yrotation
			JOINT rFoot
			{
				OFFSET 0.000000 -19.190928 -1.224953 
				CHANNELS 3 Xrotation Yrotation Zrotation
				End Site
				{
					OFFSET 0.000000 -2.449906 4.627600 
				}
			}
		}
	}
}
MOTION
Frames: 9
Frame Time: 0.033333
-11.584205 44.226913 -1.391849 -0.469782 3.798701 155.593933 0.000000 0.000000 0.000000 12.671338 12.357584 14.962772 21.518063 1.654563 -2.562145 -29.621174 -3.416449 -1.863604 -0.538052 -11.942668 -0.395866 -62.932194 5.672868 25.962755 -44.219353 2.308839 1.988513 -11.157965 1.137523 5.959496 8.107505 6.512893 -0.689295 57.831566 54.157284 46.603077 68.875153 11.353101 -3.893804 -6.550066 8.011513 -3.912294 -29.053131 18.933388 -20.401978 44.040119 3.899642 -21.993660 -16.098322 6.430586 -7.560517 -17.970467 -17.027765 20.401243 35.142723 -4.460742 22.603811 -16.726891 -12.098232 13.316860 
-9.135223 44.651707 0.077916 -0.068423 2.470701 163.014633 0.000000 0.000000 0.000000 14.317346 11.316962 16.657961 21.074209 -0.547714 -4.703461 -28.941534 -0.944686 -5.182310 -1.999546 -13.736469 -0.707019 -58.129726 3.635917 23.392889 -44.310032 4.580178 2.117858 -9.641486 -0.022624 5.362518 9.107863 4.430402 -0.569116 60.377983 53.313999 46.885994 60.395641 7.069552 -2.964762 -1.630854 2.861952 -8.162411 -28.279997 20.282925 -24.290411 33.385010 2.844847 -23.250458 -8.651143 6.838089 -10.512472 -16.713186 -14.636154 16.794216 38.722931 -4.845912 23.170904 -19.606503 -18.537987 10.158846 
-6.728648 45.321266 2.017893 178.779144 179.091995 -4.540832 0.000000 0.000000 0.000000 12.733685 9.167445 16.915546 23.431459 0.375105 -8.295634 -30.135262 1.089352 -10.160779 -4.195793 -15.565557 -1.161183 -51.375202 -0.636897 22.153837 -47.885208 5.521189 2.728711 -10.273864 -0.757853 5.008247 8.382869 5.227216 -0.512030 59.586521 49.425278 45.608814 53.361568 1.646318 -1.438346 -3.056214 1.931984 -15.092571 -32.791740 17.949150 -29.368290 24.564098 0.290499 -20.247564 6.058800 11.737982 -11.003845 -12.377713 -15.014284 3.275014 34.847054 -4.612092 19.596054 -22.949276 -19.281567 7.018722 
-4.606040 45.980953 4.017011 177.509644 179.414612 8.021417 0.000000 0.000000 0.000000 12.113908 7.392163 17.920383 24.671494 2.214666 -11.134471 -32.456997 1.826602 -13.465367 -4.948783 -16.097956 -1.250542 -48.487663 -6.604810 20.061512 -53.596802 5.273008 3.351737 -9.011498 -3.291086 -0.661940 6.781012 6.561791 -0.495511 55.444000 44.158764 46.551193 52.011433 -7.934852 1.180851 -3.371302 -0.822708 -33.617756 -37.468311 14.296881 -22.914761 23.737362 -3.769115 2.218520 9.484788 7.046529 -7.159678 -11.792211 -15.101190 -1.293384 35.359959 -0.820032 17.284971 -22.620035 -23.050615 8.041254 
-2.604231 46.619526 5.549528 -2.412525 1.063510 -162.320190 0.000000 0.000000 0.000000 11.793186 8.233178 17.103710 23.076157 3.994138 -13.683700 -30.606535 1.233505 -15.781569 -4.393917 -15.360288 -1.022145 -52.214729 -9.572052 19.440289 -61.539009 7.587667 4.739401 -8.874817 -4.298364 -7.017618 4.893861 6.576705 -0.371264 51.628136 41.680859 44.618088 50.978512 -9.648409 2.992783 -8.180877 -2.400089 -43.473351 -39.354103 10.624648 -4.907488 34.803604 -0.470595 -0.263841 4.233570 7.663525 -7.652247 -9.519677 -14.029319 -9.618322 32.669899 0.616197 12.644674 -20.169748 -20.367180 8.270185 
-0.748488 47.333557 6.893062 -2.481982 2.000077 -151.795609 0.000000 0.000000 0.000000 9.536500 9.507917 13.611810 22.269024 4.020210 -16.401939 -29.615158 3.286023 -19.351654 -4.390170 -14.689713 -0.952896 -55.421978 -11.150819 22.239237 -68.867912 9.484335 6.550685 -9.324202 -5.133687 -8.553854 2.956985 8.004808 -0.312344 47.663757 38.247047 37.023689 53.366295 -8.375325 4.123090 -9.220760 -5.816882 -43.333290 -40.622032 7.147436 -0.008018 47.729961 0.706745 -5.077911 1.561899 10.966743 -2.550408 -6.824803 -12.190843 -17.496401 28.248341 1.387058 10.325841 -17.051716 -20.919859 9.713966 
0.839435 48.040554 8.077351 -2.198824 2.156615 -143.256546 0.000000 0.000000 0.000000 8.218104 8.603498 11.404398 22.318682 3.525125 -18.548481 -29.656399 5.308031 -22.082047 -2.529183 -14.395015 -0.586123 -54.448769 -15.624276 27.171549 -72.745453 9.943370 7.669141 -8.051897 -6.396128 -11.645041 2.429745 10.218511 -0.420416 46.505188 33.680809 31.838865 56.706543 -10.156548 5.312464 -10.793524 -7.404187 -43.868721 -36.601620 6.277911 -2.784742 55.699612 -3.548946 0.773468 -2.744830 8.436113 -1.664814 -4.765302 -11.185982 -19.947338 24.496941 2.909937 7.323196 -13.607411 -22.581636 13.119049 
2.209018 48.569130 9.154959 -1.651842 2.401347 -136.280121 0.000000 0.000000 0.000000 6.934058 7.465154 10.115437 21.794802 4.207579 -19.976627 -28.549814 5.371770 -23.256506 -2.606283 -14.079871 -0.640474 -52.427151 -19.309952 30.072811 -75.353668 9.004685 7.981892 -5.705844 -7.742786 -14.799499 1.997475 10.872915 -0.435645 49.350342 29.003660 28.712330 59.223095 -13.193405 6.825871 -13.313071 -7.120938 -40.129955 -30.045780 7.870590 -5.914613 59.898643 -7.602008 2.897878 -4.936058 10.091596 -1.520981 -3.964584 -10.228280 -18.939653 22.380894 2.997816 5.189312 -9.236942 -23.300457 18.502676 
3.399578 48.851826 10.316786 -0.909352 2.880497 -130.377670 0.000000 0.000000 0.000000 5.376405 6.494984 7.836993 21.047808 4.700688 -20.727922 -27.066742 4.940898 -23.595673 -3.915334 -13.491087 -0.860038 -51.265572 -21.807795 30.259510 -77.141655 7.088534 7.467764 -4.870697 -7.767543 -16.636473 1.298450 10.163719 -0.327228 54.315487 25.588093 29.981966 60.477772 -18.337828 8.946364 -13.512236 -5.971085 -40.139351 -22.570950 11.091224 -6.946089 60.695854 -9.163560 3.541959 -7.156249 12.000089 -0.503212 -5.467588 -10.454319 -11.103704 24.116438 3.730017 6.708076 -5.631123 -24.760887 22.952461 
